<svg xmlns="http://www.w3.org/2000/svg" width="600" height="400" viewBox="0 0 600 400" fill="none">
  <g stroke="#059669" stroke-width="1.75" stroke-linecap="round" stroke-linejoin="round" opacity="0.22">
    <!-- 1. Steaming Bowl -->
    <g transform="translate(50, 40)">
      <path d="M10 25 C10 45 40 45 40 25 Z" />
      <path d="M8 25 L42 25" />
      <path d="M18 18 C16 14 20 10 18 6" />
      <path d="M25 18 C23 14 27 10 25 6" />
      <path d="M32 18 C30 14 34 10 32 6" />
    </g>

    <!-- 2. Chef Knife -->
    <g transform="translate(180, 35) rotate(25)">
      <path d="M0 0 L40 0 C45 0 48 10 35 18 L0 18 Z" />
      <path d="M0 4 L-15 4 L-15 14 L0 14 Z" />
      <circle cx="-5" cy="9" r="1" fill="#059669" />
      <circle cx="-10" cy="9" r="1" fill="#059669" />
    </g>

    <!-- 3. Whisk -->
    <g transform="translate(320, 30) rotate(-35)">
      <path d="M0 0 L0 25" stroke-width="2.5" />
      <path d="M-8 25 C-12 40 0 55 0 55 C0 55 12 40 8 25 Z" />
      <path d="M-4 25 C-6 38 0 55 0 55 C0 55 6 38 4 25 Z" />
      <path d="M0 25 L0 55" />
      <circle cx="0" cy="-2" r="2.5" />
    </g>

    <!-- 4. Fork & Spoon -->
    <g transform="translate(480, 45)">
      <g transform="rotate(30)">
        <path d="M0 0 L0 35" />
        <ellipse cx="0" cy="-8" rx="7" ry="10" />
      </g>
      <g transform="rotate(-30)">
        <path d="M0 0 L0 35" />
        <path d="M-6 -12 L-6 -2 C-6 4 6 4 6 -2 L6 -12" />
        <path d="M-2 -12 L-2 2" />
        <path d="M2 -12 L2 2" />
      </g>
    </g>

    <!-- 5. Burger -->
    <g transform="translate(80, 160)">
      <path d="M5 15 C5 2 35 2 35 15 Z" />
      <path d="M2 18 C8 16 12 20 18 18 C24 16 28 20 34 18 C38 16 40 18 40 18" />
      <rect x="4" y="22" width="32" height="4" rx="2" />
      <path d="M5 28 C5 34 35 34 35 28 Z" />
      <circle cx="14" cy="8" r="0.8" fill="#059669" />
      <circle cx="22" cy="6" r="0.8" fill="#059669" />
      <circle cx="27" cy="10" r="0.8" fill="#059669" />
    </g>

    <!-- 6. Coffee Cup -->
    <g transform="translate(260, 160)">
      <path d="M10 12 L35 12 C35 28 10 28 10 12 Z" />
      <path d="M35 16 C40 16 40 22 35 22" />
      <path d="M5 30 L40 30" />
      <path d="M18 6 C16 3 20 0 18 -3" />
      <path d="M26 6 C24 3 28 0 26 -3" />
    </g>

    <!-- 7. Pizza Slice -->
    <g transform="translate(450, 150) rotate(15)">
      <path d="M0 0 L30 -15 C32 -5 32 15 30 25 Z" />
      <path d="M28 -14 C32 -4 32 14 28 24" stroke-width="2.5" />
      <circle cx="16" cy="2" r="2.5" />
      <circle cx="22" cy="-5" r="2" />
      <circle cx="22" cy="10" r="2" />
    </g>

    <!-- 8. Cloche -->
    <g transform="translate(60, 290)">
      <path d="M5 25 L45 25" stroke-width="2" />
      <path d="M10 25 C10 8 40 8 40 25" />
      <circle cx="25" cy="6" r="2.5" />
      <path d="M2 28 L48 28" />
    </g>

    <!-- 9. Salt & Pepper -->
    <g transform="translate(210, 290)">
      <path d="M5 12 L15 12 L17 28 L3 28 Z" />
      <path d="M6 12 C6 7 14 7 14 12" />
      <path d="M22 10 L32 10 L34 28 L20 28 Z" />
      <path d="M23 10 C23 5 31 5 31 10" />
      <circle cx="10" cy="20" r="1" fill="#059669" />
      <circle cx="27" cy="19" r="1" fill="#059669" />
    </g>

    <!-- 10. Cooking Pot -->
    <g transform="translate(350, 280)">
      <rect x="10" y="15" width="34" height="22" rx="3" />
      <path d="M6 15 L48 15" />
      <path d="M21 10 L33 10" stroke-width="2" />
      <path d="M10 22 C6 22 6 27 10 27" />
      <path d="M44 22 C48 22 48 27 44 27" />
    </g>

    <!-- 11. Chili Pepper -->
    <g transform="translate(490, 290) rotate(-20)">
      <path d="M5 5 C15 5 25 15 28 30 C22 28 10 22 5 5 Z" />
      <path d="M5 5 C2 2 0 0 -2 -5" stroke-width="2" />
      <path d="M18 5 C25 2 30 8 30 15 C22 15 18 10 18 5 Z" />
    </g>

    <!-- Sparkles -->
    <g fill="#059669" stroke="none" opacity="0.7">
      <circle cx="140" cy="90" r="1.5" />
      <circle cx="240" cy="50" r="1" />
      <circle cx="420" cy="80" r="1.5" />
      <circle cx="370" cy="140" r="1.2" />
      <circle cx="180" cy="240" r="1.5" />
      <circle cx="530" cy="210" r="1.2" />
      <circle cx="130" cy="340" r="1.2" />
      <circle cx="300" cy="340" r="1.5" />
      <circle cx="460" cy="350" r="1" />
      <path d="M140 140 L142 145 L147 147 L142 149 L140 154 L138 149 L133 147 L138 145 Z" />
      <path d="M390 50 L391 53 L394 54 L391 55 L390 58 L389 55 L386 54 L389 53 Z" />
      <path d="M470 240 L471 243 L474 244 L471 245 L470 248 L469 245 L466 244 L469 243 Z" />
    </g>
  </g>
</svg>